<svg width="15" height="16" viewBox="0 0 15 16" fill="none" xmlns="http://www.w3.org/2000/svg">
<path fill-rule="evenodd" clip-rule="evenodd" d="M13.1333 2.15C6.79124 2.15 1.64998 7.29126 1.64998 13.6333C1.64998 13.753 1.74698 13.85 1.86664 13.85H3.36949C3.69244 8.48587 7.98584 4.19246 13.35 3.86951V2.36667C13.35 2.247 13.253 2.15 13.1333 2.15ZM6.87912 13.85H4.67222C4.99124 9.20413 8.70411 5.49126 13.35 5.17224V7.37915C9.91984 7.68825 7.18823 10.4199 6.87912 13.85ZM8.18568 13.85H10.8541C10.9292 12.5059 12.0059 11.4292 13.35 11.3542V8.6857C10.6384 8.98545 8.48543 11.1384 8.18568 13.85ZM0.349976 13.6333C0.349976 6.57329 6.07327 0.849998 13.1333 0.849998C13.9709 0.849998 14.65 1.52903 14.65 2.36667V11.5C14.65 12.1351 14.1351 12.65 13.5 12.65C12.7544 12.65 12.15 13.2544 12.15 14C12.15 14.6351 11.6351 15.15 11 15.15H1.86664C1.02901 15.15 0.349976 14.471 0.349976 13.6333Z" fill="white"/>
</svg>
